HIERARCHY
ROOT Hips
{
 OFFSET 0.000000 0.000000 0.000000
 CHANNELS 6 Xposition Yposition Zposition Yrotation Xrotation Zrotation
 JOINT Chest
 {
  OFFSET 0.000000 9.585900 0.002600
  CHANNELS 3 Yrotation Xrotation Zrotation
  JOINT Chest2
  {
   OFFSET 0.000000 9.601200 -0.005300
   CHANNELS 3 Yrotation Xrotation Zrotation
   JOINT Chest3
   {
    OFFSET 0.000000 9.561800 0.000000
    CHANNELS 3 Yrotation Xrotation Zrotation
    JOINT Chest4
    {
     OFFSET 0.000000 9.552100 0.000000
     CHANNELS 3 Yrotation Xrotation Zrotation
     JOINT Neck
     {
      OFFSET 0.000000 14.453000 0.000000
      CHANNELS 3 Yrotation Xrotation Zrotation
      JOINT Head
      {
       OFFSET 0.000000 8.936500 -0.011300
       CHANNELS 3 Yrotation Xrotation Zrotation
       End Site
       {
        OFFSET 0.000000 17.073600 -0.006000
       }
      }
     }
     JOINT RightCollar
     {
      OFFSET -2.921100 9.558500 0.000000
      CHANNELS 3 Yrotation Xrotation Zrotation
      JOINT RightShoulder
      {
       OFFSET -13.519700 0.000000 0.000000
       CHANNELS 3 Yrotation Xrotation Zrotation
       JOINT RightElbow
       {
        OFFSET 0.000000 -29.696600 0.000000
        CHANNELS 3 Yrotation Xrotation Zrotation
        JOINT RightWrist
        {
         OFFSET 0.000000 -24.004700 0.000000
         CHANNELS 3 Yrotation Xrotation Zrotation
         End Site
         {
          OFFSET 0.000000 -17.728500 0.000000
         }
        }
       }
      }
     }
     JOINT LeftCollar
     {
      OFFSET 2.921100 9.558500 0.000000
      CHANNELS 3 Yrotation Xrotation Zrotation
      JOINT LeftShoulder
      {
       OFFSET 13.519700 0.000000 0.000000
       CHANNELS 3 Yrotation Xrotation Zrotation
       JOINT LeftElbow
       {
        OFFSET 0.000000 -29.696600 0.000000
        CHANNELS 3 Yrotation Xrotation Zrotation
        JOINT LeftWrist
        {
         OFFSET 0.000000 -24.004700 0.000000
         CHANNELS 3 Yrotation Xrotation Zrotation
         End Site
         {
          OFFSET 0.000000 -17.728500 0.000000
         }
        }
       }
      }
     }
    }
   }
  }
 }
 JOINT RightHip
 {
  OFFSET -7.771700 -0.012900 -0.001300
  CHANNELS 3 Yrotation Xrotation Zrotation
  JOINT RightKnee
  {
   OFFSET 0.000000 -40.869800 0.001200
   CHANNELS 3 Yrotation Xrotation Zrotation
   JOINT RightAnkle
   {
    OFFSET 0.000000 -39.717900 0.002100
    CHANNELS 3 Yrotation Xrotation Zrotation
    JOINT RightToe
    {
     OFFSET 0.000000 -4.965400 11.033500
     CHANNELS 3 Yrotation Xrotation Zrotation
     End Site
     {
      OFFSET 0.000000 -1.423100 5.872300
     }
    }
   }
  }
 }
 JOINT LeftHip
 {
  OFFSET 7.771700 -0.012900 -0.001300
  CHANNELS 3 Yrotation Xrotation Zrotation
  JOINT LeftKnee
  {
   OFFSET 0.000000 -40.869800 0.001200
   CHANNELS 3 Yrotation Xrotation Zrotation
   JOINT LeftAnkle
   {
    OFFSET 0.000000 -39.717900 0.002100
    CHANNELS 3 Yrotation Xrotation Zrotation
    JOINT LeftToe
    {
     OFFSET 0.000000 -4.965400 11.033500
     CHANNELS 3 Yrotation Xrotation Zrotation
     End Site
     {
      OFFSET 0.000000 -1.423100 5.872300
     }
    }
   }
  }
 }
}
MOTION
Frames: 8
Frame Time: 0.008333
-43.276055 44.286815 31.562969 170.684110 -25.814851 -1.564666 -6.655417 18.872466 0.971549 -0.751115 2.262568 0.335747 -1.228734 3.722387 0.536712 -5.141051 16.066490 1.769827 4.408875 10.076055 -4.470296 5.938374 -15.024567 -5.991249 11.961334 -3.615948 -13.734442 -9.635222 -40.806034 -47.630735 -129.913855 -76.203863 112.617678 -13.492972 -9.660387 -44.014161 -17.083142 -4.138546 -5.052924 2.124865 -10.673477 10.278599 103.494193 -51.146368 -151.301041 3.160124 -3.306095 -32.452031 -3.367232 -66.460405 17.794096 -151.277007 71.627288 -149.686720 -15.537194 -24.037077 9.654325 0.895629 -1.197651 0.368373 4.747409 -55.039475 0.649311 173.940438 62.595865 175.778286 -0.631009 -36.998907 1.750963 -0.032079 0.086350 -0.004040
-43.262922 44.269548 31.561326 170.736813 -26.009360 -1.553691 -6.620938 18.920448 0.968260 -0.747991 2.272917 0.337238 -1.223279 3.738754 0.539045 -5.105720 16.104338 1.778211 4.413075 10.055318 -4.543580 5.964504 -15.045761 -6.077123 11.986998 -3.531382 -13.519825 -10.286895 -40.252289 -46.971690 -135.440758 -76.072173 118.871512 -13.275787 -9.550402 -43.618223 -17.044220 -4.118928 -5.076447 2.107702 -10.611317 10.239941 103.627932 -51.159578 -151.385428 3.150910 -3.302673 -32.355189 -3.584065 -66.284475 17.982210 -151.151421 71.554651 -149.657709 -15.566729 -23.998768 9.644595 0.931207 -1.261648 0.394257 4.706012 -54.862059 0.644327 173.954461 62.590566 175.781649 -0.634525 -36.984740 1.750186 -0.031110 0.084480 -0.007565
-43.247488 44.252592 31.559929 170.788163 -26.199820 -1.560980 -6.576550 18.969886 0.984148 -0.744034 2.282335 0.338705 -1.216528 3.753730 0.541360 -5.066122 16.139857 1.787644 4.421250 10.037147 -4.617716 5.995305 -15.064122 -6.165053 12.018808 -3.466353 -13.293400 -10.954596 -39.700911 -46.297250 -140.694072 -75.772181 124.903769 -13.078960 -9.414468 -43.225963 -17.008556 -4.095856 -5.100001 2.108654 -10.552023 10.200331 103.757464 -51.176432 -151.477250 3.141807 -3.297489 -32.265917 -3.783494 -66.101848 18.151496 -151.029638 71.495235 -149.610673 -15.549683 -23.991508 9.619207 0.939660 -1.293274 0.415468 4.642120 -54.691021 0.670837 173.968666 62.582023 175.788711 -0.638438 -36.975704 1.748206 -0.029899 0.086200 -0.010357
-43.232318 44.235806 31.558888 170.833546 -26.382226 -1.568935 -6.523467 19.015533 1.005740 -0.739323 2.291012 0.340174 -1.208594 3.767503 0.543744 -5.022436 16.173584 1.798389 4.432217 10.026212 -4.692467 6.029183 -15.074666 -6.254210 12.038360 -3.403183 -13.061255 -11.618471 -39.176674 -45.607182 -145.495854 -75.320478 130.542390 -12.901323 -9.256345 -42.853170 -16.975925 -4.072683 -5.124130 2.126910 -10.493777 10.155991 103.890776 -51.199397 -151.579553 3.135528 -3.288571 -32.188611 -3.980135 -65.921998 18.323624 -150.910833 71.444992 -149.566317 -15.535432 -23.990808 9.592635 0.933204 -1.308433 0.434445 4.586422 -54.527157 0.693673 173.981005 62.573885 175.798321 -0.636447 -36.970555 1.741035 -0.031068 0.091835 -0.010442
-43.212373 44.227353 31.542926 170.910849 -26.661217 -1.609357 -6.492832 19.163603 1.039912 -0.734613 2.298962 0.341703 -1.200711 3.780069 0.546250 -4.979674 16.204695 1.809798 4.447432 10.027389 -4.768012 6.067677 -15.072171 -6.345002 12.035645 -3.321587 -12.828618 -12.261052 -38.701370 -44.909241 -149.744494 -74.743335 135.680817 -12.746159 -9.080874 -42.489263 -16.942737 -4.051979 -5.152379 2.160043 -10.433673 10.104517 104.035256 -51.229194 -151.697072 3.132599 -3.274981 -32.114139 -4.216759 -65.637658 18.506642 -150.847568 71.398175 -149.552244 -15.571155 -23.930196 9.541437 0.981491 -1.394411 0.473036 4.476063 -54.261962 0.757929 174.004640 62.555112 175.828559 -0.640921 -36.940050 1.722336 -0.019043 0.055441 0.002148
-43.199979 44.211155 31.542429 170.952351 -26.823328 -1.607955 -6.437953 19.196146 1.066759 -0.730390 2.305695 0.343356 -1.193553 3.790690 0.548998 -4.941488 16.231018 1.822183 4.468767 10.043368 -4.844175 6.112689 -15.053654 -6.437636 12.019908 -3.229073 -12.593680 -12.871261 -38.259514 -44.224358 -153.375026 -74.061970 140.239113 -12.612740 -8.898137 -42.109753 -16.905106 -4.032614 -5.189035 2.204084 -10.371616 10.047784 104.188988 -51.262941 -151.825846 3.131591 -3.255395 -32.038031 -4.381899 -65.473952 18.640216 -150.770050 71.358037 -149.540122 -15.569175 -23.947803 9.524440 1.024499 -1.373241 0.462436 4.445603 -54.117284 0.753341 174.015250 62.549605 175.839490 -0.636502 -36.932496 1.714768 -0.018482 0.059133 0.002296
-43.193194 44.190719 31.550548 171.002320 -26.913557 -1.589638 -6.398272 19.161162 1.082988 -0.726403 2.310824 0.345311 -1.186825 3.798804 0.552276 -4.906447 16.251590 1.837485 4.495335 10.073479 -4.920353 6.163107 -15.019742 -6.531229 11.997438 -3.138809 -12.355104 -13.433463 -37.809920 -43.568869 -156.434516 -73.289782 144.234588 -12.488710 -8.713804 -41.693031 -16.864350 -4.014475 -5.232807 2.253954 -10.305580 9.985984 104.354786 -51.298910 -151.960831 3.136131 -3.229483 -31.966214 -4.521454 -65.386118 18.726229 -150.747289 71.315441 -149.576545 -15.546280 -24.027956 9.481373 1.004972 -1.314136 0.476827 4.445686 -54.040721 0.690708 173.977403 62.557935 175.804052 -0.628368 -36.964001 1.704571 -0.034581 0.114985 -0.004423
-43.180509 44.177160 31.547547 171.065509 -27.074534 -1.606854 -6.361243 19.206782 1.123281 -0.722388 2.314347 0.347725 -1.180189 3.804407 0.556206 -4.872693 16.266764 1.856620 4.525924 10.115858 -4.996613 6.217711 -14.972475 -6.625508 11.969858 -3.048501 -12.114053 -13.939433 -37.321967 -42.950285 -159.027507 -72.437195 147.737224 -12.358034 -8.533100 -41.206333 -16.822052 -3.999074 -5.279472 2.303804 -10.231422 9.918067 104.533456 -51.333743 -152.101937 3.142806 -3.198218 -31.897009 -4.710175 -65.223682 18.851117 -150.756436 71.275047 -149.636156 -15.514329 -24.043050 9.421417 0.998337 -1.325309 0.499593 4.388217 -53.894442 0.696036 173.971286 62.553383 175.802406 -0.626664 -36.965450 1.692627 -0.032460 0.121625 -0.005694
